<svg id="戏曲字幕" data-name="戏曲字幕" xmlns="http://www.w3.org/2000/svg" viewBox="0 0 512 512"><defs><style>.cls-1{fill:#780af6;}.cls-2{fill:#7813ed;stroke:#7813ed;stroke-miter limit:10;stroke-width:0.5px;}</style></defs><title>戏曲字幕</title><path class="cls-1" d="M155.13,376.63l-47.59,6.27a12,12,0,0,1-13.46-10.33L70.6,194.26A12,12,0,0,1,80.93,180.8l47.59-6.27A12,12,0,0,1,142,184.87l23.47,178.3A12,12,0,0,1,155.13,376.63ZM441.4,330.36,420.53,171.88a12,12,0,0,0-13.46-10.33l-47.59,6.27a12,12,0,0,0-10.33,13.46L370,339.76a12,12,0,0,0,13.46,10.33l47.59-6.27A12,12,0,0,0,441.4,330.36ZM334.73,240.92l-17-129.38a12,12,0,0,0-13.46-10.33l-47.59,6.27a12,12,0,0,0-10.33,13.46l17,129.38a12,12,0,0,0,13.46,10.33l47.59-6.27A12,12,0,0,0,334.73,240.92ZM349,349.43A12,12,0,0,0,337.12,339h-70.6a12,12,0,0,1-11.9-10.43L229.39,139.43a12,12,0,0,0-13.46-10.33l-47.59,6.27A12,12,0,0,0,158,148.83l29.36,220.46C190.51,393.16,220.08,411,260,411h83.44a12,12,0,0,0,11.9-13.57Z"/></svg>
