<svg id="戏曲字幕" data-name="戏曲字幕" xmlns="http://www.w3.org/2000/svg" viewBox="0 0 512 512"><defs><style>.cls-1{fill:#780af6;}.cls-2{fill:#7813ed;stroke:#7813ed;stroke-miter limit:10;stroke-width:0.5px;}</style></defs><title>戏曲字幕</title><path class="cls-1" d="M155.13,376.63l-47.59,6.27a12,12,0,0,1-13.46-10.33L70.6,194.26A12,12,0,0,1,80.93,180.8l47.59-6.27A12,12,0,0,1,142,184.87l23.47,178.3A12,12,0,0,1,155.13,376.63ZM441.4,330.36,420.53,171.88a12,12,0,0,0-13.46-10.33l-47.59,6.27a12,12,0,0,0-10.33,13.46L370,339.76a12,12,0,0,0,13.46,10.33l47.59-6.27A12,12,0,0,0,441.4,330.36ZM334.73,240.92l-17-129.38a12,12,0,0,0-13.46-10.33l-47.59,6.27a12,12,0,0,0-10.33,13.46l17,129.38a12,12,0,0,0,13.46,10.33l47.59-6.27A12,12,0,0,0,334.73,240.92ZM349,349.43A12,12,0,0,0,337.12,339h-70.6a12,12,0,0,1-11.9-10.43L229.39,139.43a12,12,0,0,0-13.46-10.33l-47.59,6.27A12,12,0,0,0,158,148.83l29.36,220.46C190.51,393.16,220.08,411,260,411h83.44a12,12,0,0,0,11.9-13.57Z"/><path class="cls-2" d="M332.89,342q.56-.7.84.14a30,30,0,0,1-1.12,4.78v11.53q-.42.56-.84,0v-9.56a10.57,10.57,0,0,1-1.12,2q-.7.28-.7-.42A20.21,20.21,0,0,0,332.89,342Zm2.67.56h2.67q1.55,0,1.41,1.41v2.53q.14,1.55-1.41,1.41h-3.37q.14,6.89-1.12,9.28-.7.56-.7-.42,1.12-2.39,1-8.86v-3.8A1.37,1.37,0,0,1,335.56,342.56Zm2.39.84H335.7a.75.75,0,0,0-.84.84v2.81H338q1,.14.84-.84v-2Q338.94,343.41,338,343.41Zm-1.12,6.75H338q1.55,0,1.41,1.41v5.34q.14,1.27-1.41,1.13h-1.12q-1.41.14-1.41-1.41V351.7Q335.42,350.16,336.83,350.16Zm.84.84h-.56a.75.75,0,0,0-.84.84v4.5q0,1,.84.84h.56q1,.14.84-.84v-4.5Q338.66,351,337.67,351Zm8-5.62q-.28,1.83-.84,4.08h1.69q.56.42,0,.84h-2.81v2.81h2.53q.7.42,0,.84h-2.53v4.22q-.42.7-.84,0V354h-2.53q-.56-.42,0-.84h2.53V350.3h-3q-.7-.42,0-.84H344q.56-2.67.84-4.22Q345.41,344.53,345.69,345.38Zm-2.25-3.52a10.47,10.47,0,0,1,.42,2h2.39q.7.42,0,.84h-5.91q-.56-.42,0-.84H343a10.63,10.63,0,0,0-.42-1.83Q342.87,341.3,343.44,341.86Zm-2.81,3.66q.14-.84.84-.28a20.92,20.92,0,0,1,.84,3.66q-.28.7-.84.14A17.6,17.6,0,0,0,340.63,345.52Z"/></svg>
