<svg id="戏曲字幕唱词" data-name="戏曲字幕唱词" xmlns="http://www.w3.org/2000/svg" viewBox="0 0 24 24">
    <path d="M8.3,16H4.8c-0.1,0-0.3-0.1-0.3-0.3v-1.3C4.5,14.2,4.3,14,4,14H3.5C3.2,14,3,14.2,3,14.5V16v1.5V20v0
		c0,0.8,0.7,1.5,1.5,1.5h0h4h0c0.8,0,1.5-0.7,1.5-1.5v0v-2.5V16v-1.5c0-0.3-0.2-0.5-0.5-0.5H9c-0.3,0-0.5,0.2-0.5,0.5v1.3
		C8.5,15.9,8.4,16,8.3,16z M8,20H5c-0.3,0-0.5-0.2-0.5-0.5v-1.8c0-0.1,0.1-0.3,0.3-0.3h3.5c0.1,0,0.3,0.1,0.3,0.3v1.8
		C8.5,19.8,8.3,20,8,20z"/>
    <path d="M16.8,12h-3c-0.1,0-0.3-0.1-0.3-0.3v-1.3c0-0.3-0.2-0.5-0.5-0.5h-0.5c-0.3,0-0.5,0.2-0.5,0.5V12v1.5v5v0
		c0,0.8,0.7,1.5,1.5,1.5h0H17h0c0.8,0,1.5-0.7,1.5-1.5v0v-5V12v-1.5c0-0.3-0.2-0.5-0.5-0.5h-0.5c-0.3,0-0.5,0.2-0.5,0.5v1.3
		C17,11.9,16.9,12,16.8,12z M16.5,18.5H14c-0.3,0-0.5-0.2-0.5-0.5v-4.3c0-0.1,0.1-0.3,0.3-0.3h3c0.1,0,0.3,0.1,0.3,0.3V18
		C17,18.3,16.8,18.5,16.5,18.5z"/>
    <path d="M9,2.5V3c0,0.3-0.2,0.5-0.5,0.5h-4C4.2,3.5,4,3.3,4,3V2.5C4,2.2,4.2,2,4.5,2h4C8.8,2,9,2.2,9,2.5z M2.5,6.5h8
		C10.8,6.5,11,6.3,11,6V5.5C11,5.2,10.8,5,10.5,5h-8C2.2,5,2,5.2,2,5.5V6C2,6.3,2.2,6.5,2.5,6.5z M3.5,9.5h6C9.8,9.5,10,9.3,10,9
		V8.5C10,8.2,9.8,8,9.5,8h-6C3.2,8,3,8.2,3,8.5V9C3,9.3,3.2,9.5,3.5,9.5z M3.5,12.5h6c0.3,0,0.5-0.2,0.5-0.5v-0.5
		c0-0.3-0.2-0.5-0.5-0.5h-6C3.2,11,3,11.2,3,11.5V12C3,12.3,3.2,12.5,3.5,12.5z M20.5,2H11c-0.3,0-0.5,0.2-0.5,0.5V3
		c0,0.3,0.2,0.5,0.5,0.5h9c0.3,0,0.5,0.2,0.5,0.5v17c0,0.3,0.2,0.5,0.5,0.5h0.5c0.3,0,0.5-0.2,0.5-0.5V3.5v0C22,2.7,21.3,2,20.5,2
		L20.5,2z M12.5,7.5H18c0.3,0,0.5-0.2,0.5-0.5V6.5C18.5,6.2,18.3,6,18,6h-5.5C12.2,6,12,6.2,12,6.5V7C12,7.3,12.2,7.5,12.5,7.5z"/>
</svg>
